# xmcd CD database file
#
# Track frame offsets:
#	150
#	13277
#	30553
#
# Disc length: 612 seconds
#
# Revision: 2
# Processed by: cddbd v1.4PL0 Copyright (c) Steve Scherf et al.
# Submitted via: CDex 1.40Beta8
#
DISCID=1c026203
DTITLE=Cosmic Rough Riders - The Pain Inside 1
DYEAR=2001
DGENRE=Rock
TTITLE0=The Pain Inside
TTITLE1=I Got Over You
TTITLE2=Camera Shy
EXTD=YEAR: 2001 ID3G: 17
EXTT0=
EXTT1=
EXTT2=
PLAYORDER=
